<?xml version="1.0" standalone="no"?><!DOCTYPE svg PUBLIC "-//W3C//DTD SVG 1.1//EN" "http://www.w3.org/Graphics/SVG/1.1/DTD/svg11.dtd"><svg t="1594540835727" class="icon" viewBox="0 0 1024 1024" version="1.1" xmlns="http://www.w3.org/2000/svg" p-id="15488" width="32" height="32" xmlns:xlink="http://www.w3.org/1999/xlink"><defs><style type="text/css"></style></defs><path d="M892 895H133c-38 0-69-31-69-69V198c0-38 31-69 69-69h47c12.7 0 23 10.3 23 23s-10.3 23-23 23h-47c-12.7 0-23 10.3-23 23v628c0 12.7 10.3 23 23 23h759c12.7 0 23-10.3 23-23V198c0-12.7-10.3-23-23-23H365.9c-12.7 0-23-10.3-23-23s10.3-23 23-23H892c38 0 69 31 69 69v628c0 38-31 69-69 69zM293 175h-35c-12.7 0-23-10.3-23-23s10.3-23 23-23h35c12.7 0 23 10.3 23 23s-10.3 23-23 23z" fill="#ffffff" p-id="15489"></path><path d="M122.2 872.7l-34.4-30.6 264.7-296.8 185.4 102.2 219.5-232.3 187.9 168.1-30.6 34.3-154.6-138.3-213.2 225.6-184.5-101.6zM287 471c-59 0-107-48-107-107s48-107 107-107 107 48 107 107-48 107-107 107z m0-168c-33.6 0-61 27.4-61 61s27.4 61 61 61 61-27.4 61-61-27.4-61-61-61z" fill="#ffffff" p-id="15490"></path></svg>